<svg width="33" height="33" viewBox="0 0 30 30" fill="none" xmlns="http://www.w3.org/2000/svg">
<path d="M14.9998 0C19.0753 0 19.5838 0.0149999 21.1828 0.0899999C22.7803 0.165 23.8678 0.4155 24.8248 0.7875C25.8148 1.1685 26.6488 1.6845 27.4828 2.517C28.2455 3.26684 28.8357 4.17388 29.2123 5.175C29.5828 6.1305 29.8348 7.2195 29.9098 8.817C29.9803 10.416 29.9998 10.9245 29.9998 15C29.9998 19.0755 29.9848 19.584 29.9098 21.183C29.8348 22.7805 29.5828 23.868 29.2123 24.825C28.8368 25.8267 28.2465 26.7339 27.4828 27.483C26.7327 28.2455 25.8257 28.8356 24.8248 29.2125C23.8693 29.583 22.7803 29.835 21.1828 29.91C19.5838 29.9805 19.0753 30 14.9998 30C10.9243 30 10.4158 29.985 8.81677 29.91C7.21927 29.835 6.13177 29.583 5.17477 29.2125C4.17326 28.8367 3.26606 28.2464 2.51677 27.483C1.75388 26.7333 1.16367 25.8262 0.787271 24.825C0.415271 23.8695 0.164771 22.7805 0.089771 21.183C0.019271 19.584 -0.000228882 19.0755 -0.000228882 15C-0.000228882 10.9245 0.014771 10.416 0.089771 8.817C0.164771 7.218 0.415271 6.132 0.787271 5.175C1.16263 4.17327 1.75298 3.26598 2.51677 2.517C3.26628 1.75385 4.17341 1.16359 5.17477 0.7875C6.13177 0.4155 7.21777 0.165 8.81677 0.0899999C10.4158 0.0194999 10.9243 0 14.9998 0ZM14.9998 7.5C13.0106 7.5 11.103 8.29018 9.69647 9.6967C8.28995 11.1032 7.49977 13.0109 7.49977 15C7.49977 16.9891 8.28995 18.8968 9.69647 20.3033C11.103 21.7098 13.0106 22.5 14.9998 22.5C16.9889 22.5 18.8965 21.7098 20.3031 20.3033C21.7096 18.8968 22.4998 16.9891 22.4998 15C22.4998 13.0109 21.7096 11.1032 20.3031 9.6967C18.8965 8.29018 16.9889 7.5 14.9998 7.5V7.5ZM24.7498 7.125C24.7498 6.62772 24.5522 6.15081 24.2006 5.79917C23.849 5.44754 23.3721 5.25 22.8748 5.25C22.3775 5.25 21.9006 5.44754 21.5489 5.79917C21.1973 6.15081 20.9998 6.62772 20.9998 7.125C20.9998 7.62228 21.1973 8.09919 21.5489 8.45083C21.9006 8.80246 22.3775 9 22.8748 9C23.3721 9 23.849 8.80246 24.2006 8.45083C24.5522 8.09919 24.7498 7.62228 24.7498 7.125ZM14.9998 10.5C16.1932 10.5 17.3378 10.9741 18.1818 11.818C19.0257 12.6619 19.4998 13.8065 19.4998 15C19.4998 16.1935 19.0257 17.3381 18.1818 18.182C17.3378 19.0259 16.1932 19.5 14.9998 19.5C13.8063 19.5 12.6617 19.0259 11.8178 18.182C10.9739 17.3381 10.4998 16.1935 10.4998 15C10.4998 13.8065 10.9739 12.6619 11.8178 11.818C12.6617 10.9741 13.8063 10.5 14.9998 10.5V10.5Z" fill="#2F3640"/>
</svg>
